<svg id="visual" viewBox="0 0 1080 200" width="1080" height="200" xmlns="http://www.w3.org/2000/svg" xmlns:xlink="http://www.w3.org/1999/xlink" version="1.1"><rect x="0" y="0" width="1080" height="200" fill="#111111"></rect><path d="M0 170L13.8 168.3C27.7 166.7 55.3 163.3 83 154.3C110.7 145.3 138.3 130.7 166 130.5C193.7 130.3 221.3 144.7 249 145.2C276.7 145.7 304.3 132.3 332 131.5C359.7 130.7 387.3 142.3 415 152.7C442.7 163 470.3 172 498.2 164.5C526 157 554 133 581.8 129.8C609.7 126.7 637.3 144.3 665 151.5C692.7 158.7 720.3 155.3 748 148C775.7 140.7 803.3 129.3 831 129.3C858.7 129.3 886.3 140.7 914 144.5C941.7 148.3 969.3 144.7 997 149.7C1024.7 154.7 1052.3 168.3 1066.2 175.2L1080 182L1080 0L1066.2 0C1052.3 0 1024.7 0 997 0C969.3 0 941.7 0 914 0C886.3 0 858.7 0 831 0C803.3 0 775.7 0 748 0C720.3 0 692.7 0 665 0C637.3 0 609.7 0 581.8 0C554 0 526 0 498.2 0C470.3 0 442.7 0 415 0C387.3 0 359.7 0 332 0C304.3 0 276.7 0 249 0C221.3 0 193.7 0 166 0C138.3 0 110.7 0 83 0C55.3 0 27.7 0 13.8 0L0 0Z" fill="#fa7268"></path><path d="M0 106L13.8 111.7C27.7 117.3 55.3 128.7 83 131.2C110.7 133.7 138.3 127.3 166 122.8C193.7 118.3 221.3 115.7 249 117.7C276.7 119.7 304.3 126.3 332 126.3C359.7 126.3 387.3 119.7 415 121C442.7 122.3 470.3 131.7 498.2 128.5C526 125.3 554 109.7 581.8 103.2C609.7 96.7 637.3 99.3 665 98.8C692.7 98.3 720.3 94.7 748 98.5C775.7 102.3 803.3 113.7 831 123.5C858.7 133.3 886.3 141.7 914 137.2C941.7 132.7 969.3 115.3 997 108.5C1024.7 101.7 1052.3 105.3 1066.2 107.2L1080 109L1080 0L1066.2 0C1052.3 0 1024.7 0 997 0C969.3 0 941.7 0 914 0C886.3 0 858.7 0 831 0C803.3 0 775.7 0 748 0C720.3 0 692.7 0 665 0C637.3 0 609.7 0 581.8 0C554 0 526 0 498.2 0C470.3 0 442.7 0 415 0C387.3 0 359.7 0 332 0C304.3 0 276.7 0 249 0C221.3 0 193.7 0 166 0C138.3 0 110.7 0 83 0C55.3 0 27.7 0 13.8 0L0 0Z" fill="#ef5f67"></path><path d="M0 80L13.8 78.2C27.7 76.3 55.3 72.7 83 74.8C110.7 77 138.3 85 166 86.3C193.7 87.7 221.3 82.3 249 83.7C276.7 85 304.3 93 332 90.7C359.7 88.3 387.3 75.7 415 78.2C442.7 80.7 470.3 98.3 498.2 103.8C526 109.3 554 102.7 581.8 98.3C609.7 94 637.3 92 665 94.2C692.7 96.3 720.3 102.7 748 102.7C775.7 102.7 803.3 96.3 831 90.7C858.7 85 886.3 80 914 82.2C941.7 84.3 969.3 93.7 997 93C1024.7 92.3 1052.3 81.7 1066.2 76.3L1080 71L1080 0L1066.2 0C1052.3 0 1024.7 0 997 0C969.3 0 941.7 0 914 0C886.3 0 858.7 0 831 0C803.3 0 775.7 0 748 0C720.3 0 692.7 0 665 0C637.3 0 609.7 0 581.8 0C554 0 526 0 498.2 0C470.3 0 442.7 0 415 0C387.3 0 359.7 0 332 0C304.3 0 276.7 0 249 0C221.3 0 193.7 0 166 0C138.3 0 110.7 0 83 0C55.3 0 27.7 0 13.8 0L0 0Z" fill="#e34c67"></path><path d="M0 67L13.8 68.3C27.7 69.7 55.3 72.3 83 74.7C110.7 77 138.3 79 166 77.8C193.7 76.7 221.3 72.3 249 68.5C276.7 64.7 304.3 61.3 332 61.8C359.7 62.3 387.3 66.7 415 62.8C442.7 59 470.3 47 498.2 44.7C526 42.3 554 49.7 581.8 57.2C609.7 64.7 637.3 72.3 665 75.2C692.7 78 720.3 76 748 75.2C775.7 74.3 803.3 74.7 831 70.5C858.7 66.3 886.3 57.7 914 56.7C941.7 55.7 969.3 62.3 997 62.8C1024.7 63.3 1052.3 57.7 1066.2 54.8L1080 52L1080 0L1066.2 0C1052.3 0 1024.7 0 997 0C969.3 0 941.7 0 914 0C886.3 0 858.7 0 831 0C803.3 0 775.7 0 748 0C720.3 0 692.7 0 665 0C637.3 0 609.7 0 581.8 0C554 0 526 0 498.2 0C470.3 0 442.7 0 415 0C387.3 0 359.7 0 332 0C304.3 0 276.7 0 249 0C221.3 0 193.7 0 166 0C138.3 0 110.7 0 83 0C55.3 0 27.7 0 13.8 0L0 0Z" fill="#d53867"></path><path d="M0 52L13.8 45C27.7 38 55.3 24 83 24.5C110.7 25 138.3 40 166 41.2C193.7 42.3 221.3 29.7 249 27.3C276.7 25 304.3 33 332 37.7C359.7 42.3 387.3 43.7 415 42.3C442.7 41 470.3 37 498.2 31.8C526 26.7 554 20.3 581.8 22.3C609.7 24.3 637.3 34.7 665 35.8C692.7 37 720.3 29 748 29.2C775.7 29.3 803.3 37.7 831 37.3C858.7 37 886.3 28 914 27.2C941.7 26.3 969.3 33.7 997 33C1024.7 32.3 1052.3 23.7 1066.2 19.3L1080 15L1080 0L1066.2 0C1052.3 0 1024.7 0 997 0C969.3 0 941.7 0 914 0C886.3 0 858.7 0 831 0C803.3 0 775.7 0 748 0C720.3 0 692.7 0 665 0C637.3 0 609.7 0 581.8 0C554 0 526 0 498.2 0C470.3 0 442.7 0 415 0C387.3 0 359.7 0 332 0C304.3 0 276.7 0 249 0C221.3 0 193.7 0 166 0C138.3 0 110.7 0 83 0C55.3 0 27.7 0 13.8 0L0 0Z" fill="#c62368"></path></svg>