<svg id="visual" viewBox="0 0 1080 200" width="1080" height="200" xmlns="http://www.w3.org/2000/svg" xmlns:xlink="http://www.w3.org/1999/xlink" version="1.1"><rect x="0" y="0" width="1080" height="200" fill="#111111"></rect><path d="M0 91L13.8 90.2C27.7 89.3 55.3 87.7 83 88.5C110.7 89.3 138.3 92.7 166 93.2C193.7 93.7 221.3 91.3 249 85.8C276.7 80.3 304.3 71.7 332 71.8C359.7 72 387.3 81 415 86C442.7 91 470.3 92 498.2 91.3C526 90.7 554 88.3 581.8 82.3C609.7 76.3 637.3 66.7 665 66.8C692.7 67 720.3 77 748 83.2C775.7 89.3 803.3 91.7 831 93C858.7 94.3 886.3 94.7 914 89.5C941.7 84.3 969.3 73.7 997 75.5C1024.7 77.3 1052.3 91.7 1066.2 98.8L1080 106L1080 0L1066.2 0C1052.3 0 1024.7 0 997 0C969.3 0 941.7 0 914 0C886.3 0 858.7 0 831 0C803.3 0 775.7 0 748 0C720.3 0 692.7 0 665 0C637.3 0 609.7 0 581.8 0C554 0 526 0 498.2 0C470.3 0 442.7 0 415 0C387.3 0 359.7 0 332 0C304.3 0 276.7 0 249 0C221.3 0 193.7 0 166 0C138.3 0 110.7 0 83 0C55.3 0 27.7 0 13.8 0L0 0Z" fill="#fa7268"></path><path d="M0 45L13.8 46.5C27.7 48 55.3 51 83 56C110.7 61 138.3 68 166 65.2C193.7 62.3 221.3 49.7 249 42.3C276.7 35 304.3 33 332 35.7C359.7 38.3 387.3 45.7 415 50.2C442.7 54.7 470.3 56.3 498.2 57.5C526 58.7 554 59.3 581.8 59.5C609.7 59.7 637.3 59.3 665 60.8C692.7 62.3 720.3 65.7 748 61.7C775.7 57.7 803.3 46.3 831 46.3C858.7 46.3 886.3 57.7 914 57.5C941.7 57.3 969.3 45.7 997 39.7C1024.7 33.7 1052.3 33.3 1066.2 33.2L1080 33L1080 0L1066.2 0C1052.3 0 1024.7 0 997 0C969.3 0 941.7 0 914 0C886.3 0 858.7 0 831 0C803.3 0 775.7 0 748 0C720.3 0 692.7 0 665 0C637.3 0 609.7 0 581.8 0C554 0 526 0 498.2 0C470.3 0 442.7 0 415 0C387.3 0 359.7 0 332 0C304.3 0 276.7 0 249 0C221.3 0 193.7 0 166 0C138.3 0 110.7 0 83 0C55.3 0 27.7 0 13.8 0L0 0Z" fill="#e34c67"></path><path d="M0 31L13.8 33.2C27.7 35.3 55.3 39.7 83 39.7C110.7 39.7 138.3 35.3 166 32.7C193.7 30 221.3 29 249 28.5C276.7 28 304.3 28 332 25.8C359.7 23.7 387.3 19.3 415 19.3C442.7 19.3 470.3 23.7 498.2 28.5C526 33.3 554 38.7 581.8 39.5C609.7 40.3 637.3 36.7 665 33C692.7 29.3 720.3 25.7 748 23.8C775.7 22 803.3 22 831 24.8C858.7 27.7 886.3 33.3 914 34.3C941.7 35.3 969.3 31.7 997 30.2C1024.7 28.7 1052.3 29.3 1066.2 29.7L1080 30L1080 0L1066.2 0C1052.3 0 1024.7 0 997 0C969.3 0 941.7 0 914 0C886.3 0 858.7 0 831 0C803.3 0 775.7 0 748 0C720.3 0 692.7 0 665 0C637.3 0 609.7 0 581.8 0C554 0 526 0 498.2 0C470.3 0 442.7 0 415 0C387.3 0 359.7 0 332 0C304.3 0 276.7 0 249 0C221.3 0 193.7 0 166 0C138.3 0 110.7 0 83 0C55.3 0 27.7 0 13.8 0L0 0Z" fill="#c62368"></path></svg>