<svg id="visual" viewBox="0 0 1080 200" width="1080" height="200" xmlns="http://www.w3.org/2000/svg" xmlns:xlink="http://www.w3.org/1999/xlink" version="1.1"><rect x="0" y="0" width="1080" height="200" fill="#111111"></rect><path d="M0 88L13.8 85.8C27.7 83.7 55.3 79.3 83 79.5C110.7 79.7 138.3 84.3 166 90C193.7 95.7 221.3 102.3 249 103.7C276.7 105 304.3 101 332 96C359.7 91 387.3 85 415 80.3C442.7 75.7 470.3 72.3 498.2 76C526 79.7 554 90.3 581.8 90.7C609.7 91 637.3 81 665 81C692.7 81 720.3 91 748 92.2C775.7 93.3 803.3 85.7 831 83.5C858.7 81.3 886.3 84.7 914 89.3C941.7 94 969.3 100 997 99.8C1024.7 99.7 1052.3 93.3 1066.2 90.2L1080 87L1080 0L1066.2 0C1052.3 0 1024.7 0 997 0C969.3 0 941.7 0 914 0C886.3 0 858.7 0 831 0C803.3 0 775.7 0 748 0C720.3 0 692.7 0 665 0C637.3 0 609.7 0 581.8 0C554 0 526 0 498.2 0C470.3 0 442.7 0 415 0C387.3 0 359.7 0 332 0C304.3 0 276.7 0 249 0C221.3 0 193.7 0 166 0C138.3 0 110.7 0 83 0C55.3 0 27.7 0 13.8 0L0 0Z" fill="#fa7268"></path><path d="M0 60L13.8 58C27.7 56 55.3 52 83 51C110.7 50 138.3 52 166 57C193.7 62 221.3 70 249 72C276.7 74 304.3 70 332 64.7C359.7 59.3 387.3 52.7 415 52.3C442.7 52 470.3 58 498.2 61C526 64 554 64 581.8 63C609.7 62 637.3 60 665 60.3C692.7 60.7 720.3 63.3 748 61.5C775.7 59.7 803.3 53.3 831 51.7C858.7 50 886.3 53 914 54C941.7 55 969.3 54 997 55.2C1024.7 56.3 1052.3 59.7 1066.2 61.3L1080 63L1080 0L1066.2 0C1052.3 0 1024.7 0 997 0C969.3 0 941.7 0 914 0C886.3 0 858.7 0 831 0C803.3 0 775.7 0 748 0C720.3 0 692.7 0 665 0C637.3 0 609.7 0 581.8 0C554 0 526 0 498.2 0C470.3 0 442.7 0 415 0C387.3 0 359.7 0 332 0C304.3 0 276.7 0 249 0C221.3 0 193.7 0 166 0C138.3 0 110.7 0 83 0C55.3 0 27.7 0 13.8 0L0 0Z" fill="#e34c67"></path><path d="M0 10L13.8 15.3C27.7 20.7 55.3 31.3 83 34.7C110.7 38 138.3 34 166 32.3C193.7 30.7 221.3 31.3 249 32.7C276.7 34 304.3 36 332 33.5C359.7 31 387.3 24 415 24.2C442.7 24.3 470.3 31.7 498.2 36.2C526 40.7 554 42.3 581.8 40.2C609.7 38 637.3 32 665 26C692.7 20 720.3 14 748 13C775.7 12 803.3 16 831 17.7C858.7 19.3 886.3 18.7 914 21.8C941.7 25 969.3 32 997 34.2C1024.7 36.3 1052.3 33.7 1066.2 32.3L1080 31L1080 0L1066.2 0C1052.3 0 1024.7 0 997 0C969.3 0 941.7 0 914 0C886.3 0 858.7 0 831 0C803.3 0 775.7 0 748 0C720.3 0 692.7 0 665 0C637.3 0 609.7 0 581.8 0C554 0 526 0 498.2 0C470.3 0 442.7 0 415 0C387.3 0 359.7 0 332 0C304.3 0 276.7 0 249 0C221.3 0 193.7 0 166 0C138.3 0 110.7 0 83 0C55.3 0 27.7 0 13.8 0L0 0Z" fill="#c62368"></path></svg>