<svg id="visual" viewBox="0 0 1080 200" width="1080" height="200" xmlns="http://www.w3.org/2000/svg" xmlns:xlink="http://www.w3.org/1999/xlink" version="1.1"><rect x="0" y="0" width="1080" height="200" fill="#111111"></rect><path d="M0 59L13.8 66.5C27.7 74 55.3 89 83 95.3C110.7 101.7 138.3 99.3 166 99.8C193.7 100.3 221.3 103.7 249 99C276.7 94.3 304.3 81.7 332 74.5C359.7 67.3 387.3 65.7 415 69.3C442.7 73 470.3 82 498.2 87.3C526 92.7 554 94.3 581.8 93C609.7 91.7 637.3 87.3 665 87.5C692.7 87.7 720.3 92.3 748 90.2C775.7 88 803.3 79 831 75.2C858.7 71.3 886.3 72.7 914 78C941.7 83.3 969.3 92.7 997 91C1024.7 89.3 1052.3 76.7 1066.2 70.3L1080 64L1080 0L1066.2 0C1052.3 0 1024.7 0 997 0C969.3 0 941.7 0 914 0C886.3 0 858.7 0 831 0C803.3 0 775.7 0 748 0C720.3 0 692.7 0 665 0C637.3 0 609.7 0 581.8 0C554 0 526 0 498.2 0C470.3 0 442.7 0 415 0C387.3 0 359.7 0 332 0C304.3 0 276.7 0 249 0C221.3 0 193.7 0 166 0C138.3 0 110.7 0 83 0C55.3 0 27.7 0 13.8 0L0 0Z" fill="#fa7268"></path><path d="M0 57L13.8 54C27.7 51 55.3 45 83 48C110.7 51 138.3 63 166 67C193.7 71 221.3 67 249 62.8C276.7 58.7 304.3 54.3 332 49.7C359.7 45 387.3 40 415 39.5C442.7 39 470.3 43 498.2 44.2C526 45.3 554 43.7 581.8 48C609.7 52.3 637.3 62.7 665 68.7C692.7 74.7 720.3 76.3 748 76.7C775.7 77 803.3 76 831 72.8C858.7 69.7 886.3 64.3 914 64.7C941.7 65 969.3 71 997 68.8C1024.7 66.7 1052.3 56.3 1066.2 51.2L1080 46L1080 0L1066.2 0C1052.3 0 1024.7 0 997 0C969.3 0 941.7 0 914 0C886.3 0 858.7 0 831 0C803.3 0 775.7 0 748 0C720.3 0 692.7 0 665 0C637.3 0 609.7 0 581.8 0C554 0 526 0 498.2 0C470.3 0 442.7 0 415 0C387.3 0 359.7 0 332 0C304.3 0 276.7 0 249 0C221.3 0 193.7 0 166 0C138.3 0 110.7 0 83 0C55.3 0 27.7 0 13.8 0L0 0Z" fill="#e34c67"></path><path d="M0 31L13.8 31.5C27.7 32 55.3 33 83 32.3C110.7 31.7 138.3 29.3 166 26.2C193.7 23 221.3 19 249 22C276.7 25 304.3 35 332 35.3C359.7 35.7 387.3 26.3 415 25.3C442.7 24.3 470.3 31.7 498.2 34.8C526 38 554 37 581.8 36.8C609.7 36.7 637.3 37.3 665 38C692.7 38.7 720.3 39.3 748 36.3C775.7 33.3 803.3 26.7 831 24.8C858.7 23 886.3 26 914 28.3C941.7 30.7 969.3 32.3 997 33C1024.7 33.7 1052.3 33.3 1066.2 33.2L1080 33L1080 0L1066.2 0C1052.3 0 1024.7 0 997 0C969.3 0 941.7 0 914 0C886.3 0 858.7 0 831 0C803.3 0 775.7 0 748 0C720.3 0 692.7 0 665 0C637.3 0 609.7 0 581.8 0C554 0 526 0 498.2 0C470.3 0 442.7 0 415 0C387.3 0 359.7 0 332 0C304.3 0 276.7 0 249 0C221.3 0 193.7 0 166 0C138.3 0 110.7 0 83 0C55.3 0 27.7 0 13.8 0L0 0Z" fill="#c62368"></path></svg>