<svg id="visual" viewBox="0 0 1080 200" width="1080" height="200" xmlns="http://www.w3.org/2000/svg" xmlns:xlink="http://www.w3.org/1999/xlink" version="1.1"><rect x="0" y="0" width="1080" height="200" fill="#111111"></rect><path d="M0 90L13.8 92.7C27.7 95.3 55.3 100.7 83 103.3C110.7 106 138.3 106 166 99.5C193.7 93 221.3 80 249 74.2C276.7 68.3 304.3 69.7 332 75C359.7 80.3 387.3 89.7 415 87.8C442.7 86 470.3 73 498.2 67.3C526 61.7 554 63.3 581.8 70.2C609.7 77 637.3 89 665 92.8C692.7 96.7 720.3 92.3 748 90C775.7 87.7 803.3 87.3 831 87.2C858.7 87 886.3 87 914 89.2C941.7 91.3 969.3 95.7 997 98.3C1024.7 101 1052.3 102 1066.2 102.5L1080 103L1080 0L1066.2 0C1052.3 0 1024.7 0 997 0C969.3 0 941.7 0 914 0C886.3 0 858.7 0 831 0C803.3 0 775.7 0 748 0C720.3 0 692.7 0 665 0C637.3 0 609.7 0 581.8 0C554 0 526 0 498.2 0C470.3 0 442.7 0 415 0C387.3 0 359.7 0 332 0C304.3 0 276.7 0 249 0C221.3 0 193.7 0 166 0C138.3 0 110.7 0 83 0C55.3 0 27.7 0 13.8 0L0 0Z" fill="#fa7268"></path><path d="M0 36L13.8 36.3C27.7 36.7 55.3 37.3 83 36.8C110.7 36.3 138.3 34.7 166 40.3C193.7 46 221.3 59 249 60.3C276.7 61.7 304.3 51.3 332 49C359.7 46.7 387.3 52.3 415 54.7C442.7 57 470.3 56 498.2 55.8C526 55.7 554 56.3 581.8 53.2C609.7 50 637.3 43 665 43C692.7 43 720.3 50 748 49.3C775.7 48.7 803.3 40.3 831 36.2C858.7 32 886.3 32 914 36.2C941.7 40.3 969.3 48.7 997 55.2C1024.7 61.7 1052.3 66.3 1066.2 68.7L1080 71L1080 0L1066.2 0C1052.3 0 1024.7 0 997 0C969.3 0 941.7 0 914 0C886.3 0 858.7 0 831 0C803.3 0 775.7 0 748 0C720.3 0 692.7 0 665 0C637.3 0 609.7 0 581.8 0C554 0 526 0 498.2 0C470.3 0 442.7 0 415 0C387.3 0 359.7 0 332 0C304.3 0 276.7 0 249 0C221.3 0 193.7 0 166 0C138.3 0 110.7 0 83 0C55.3 0 27.7 0 13.8 0L0 0Z" fill="#e34c67"></path><path d="M0 38L13.8 33.5C27.7 29 55.3 20 83 17.8C110.7 15.7 138.3 20.3 166 22.8C193.7 25.3 221.3 25.7 249 29.5C276.7 33.3 304.3 40.7 332 43.3C359.7 46 387.3 44 415 37.7C442.7 31.3 470.3 20.7 498.2 19.2C526 17.7 554 25.3 581.8 27.2C609.7 29 637.3 25 665 22.3C692.7 19.7 720.3 18.3 748 20.8C775.7 23.3 803.3 29.7 831 31.3C858.7 33 886.3 30 914 29.7C941.7 29.3 969.3 31.7 997 30.7C1024.7 29.7 1052.3 25.3 1066.2 23.2L1080 21L1080 0L1066.2 0C1052.3 0 1024.7 0 997 0C969.3 0 941.7 0 914 0C886.3 0 858.7 0 831 0C803.3 0 775.7 0 748 0C720.3 0 692.7 0 665 0C637.3 0 609.7 0 581.8 0C554 0 526 0 498.2 0C470.3 0 442.7 0 415 0C387.3 0 359.7 0 332 0C304.3 0 276.7 0 249 0C221.3 0 193.7 0 166 0C138.3 0 110.7 0 83 0C55.3 0 27.7 0 13.8 0L0 0Z" fill="#c62368"></path></svg>