<svg id="visual" viewBox="0 0 1080 200" width="1080" height="200" xmlns="http://www.w3.org/2000/svg" xmlns:xlink="http://www.w3.org/1999/xlink" version="1.1"><rect x="0" y="0" width="1080" height="200" fill="#111111"></rect><path d="M0 94L13.8 94.8C27.7 95.7 55.3 97.3 83 94C110.7 90.7 138.3 82.3 166 82.8C193.7 83.3 221.3 92.7 249 95.2C276.7 97.7 304.3 93.3 332 85.7C359.7 78 387.3 67 415 65.3C442.7 63.7 470.3 71.3 498.2 78.7C526 86 554 93 581.8 89.7C609.7 86.3 637.3 72.7 665 66.3C692.7 60 720.3 61 748 65.2C775.7 69.3 803.3 76.7 831 82.8C858.7 89 886.3 94 914 89.3C941.7 84.7 969.3 70.3 997 65.7C1024.7 61 1052.3 66 1066.2 68.5L1080 71L1080 0L1066.2 0C1052.3 0 1024.7 0 997 0C969.3 0 941.7 0 914 0C886.3 0 858.7 0 831 0C803.3 0 775.7 0 748 0C720.3 0 692.7 0 665 0C637.3 0 609.7 0 581.8 0C554 0 526 0 498.2 0C470.3 0 442.7 0 415 0C387.3 0 359.7 0 332 0C304.3 0 276.7 0 249 0C221.3 0 193.7 0 166 0C138.3 0 110.7 0 83 0C55.3 0 27.7 0 13.8 0L0 0Z" fill="#fa7268"></path><path d="M0 49L13.8 50.5C27.7 52 55.3 55 83 58.3C110.7 61.7 138.3 65.3 166 62.8C193.7 60.3 221.3 51.7 249 51.8C276.7 52 304.3 61 332 64.5C359.7 68 387.3 66 415 66.2C442.7 66.3 470.3 68.7 498.2 65C526 61.3 554 51.7 581.8 50.2C609.7 48.7 637.3 55.3 665 60.3C692.7 65.3 720.3 68.7 748 70.2C775.7 71.7 803.3 71.3 831 65.5C858.7 59.7 886.3 48.3 914 47.7C941.7 47 969.3 57 997 58.2C1024.7 59.3 1052.3 51.7 1066.2 47.8L1080 44L1080 0L1066.2 0C1052.3 0 1024.7 0 997 0C969.3 0 941.7 0 914 0C886.3 0 858.7 0 831 0C803.3 0 775.7 0 748 0C720.3 0 692.7 0 665 0C637.3 0 609.7 0 581.8 0C554 0 526 0 498.2 0C470.3 0 442.7 0 415 0C387.3 0 359.7 0 332 0C304.3 0 276.7 0 249 0C221.3 0 193.7 0 166 0C138.3 0 110.7 0 83 0C55.3 0 27.7 0 13.8 0L0 0Z" fill="#e34c67"></path><path d="M0 21L13.8 21.3C27.7 21.7 55.3 22.3 83 23.8C110.7 25.3 138.3 27.7 166 27.2C193.7 26.7 221.3 23.3 249 20.2C276.7 17 304.3 14 332 14.5C359.7 15 387.3 19 415 21.5C442.7 24 470.3 25 498.2 29.2C526 33.3 554 40.7 581.8 37.8C609.7 35 637.3 22 665 20.5C692.7 19 720.3 29 748 35.5C775.7 42 803.3 45 831 43.7C858.7 42.3 886.3 36.7 914 31C941.7 25.3 969.3 19.7 997 16.7C1024.7 13.7 1052.3 13.3 1066.2 13.2L1080 13L1080 0L1066.2 0C1052.3 0 1024.7 0 997 0C969.3 0 941.7 0 914 0C886.3 0 858.7 0 831 0C803.3 0 775.7 0 748 0C720.3 0 692.7 0 665 0C637.3 0 609.7 0 581.8 0C554 0 526 0 498.2 0C470.3 0 442.7 0 415 0C387.3 0 359.7 0 332 0C304.3 0 276.7 0 249 0C221.3 0 193.7 0 166 0C138.3 0 110.7 0 83 0C55.3 0 27.7 0 13.8 0L0 0Z" fill="#c62368"></path></svg>